<?xml version="1.0" encoding="utf-8"?>
<!-- Generator: Adobe Illustrator 25.2.1, SVG Export Plug-In . SVG Version: 6.00 Build 0)  -->
<svg version="1.1" id="レイヤー_1" xmlns="http://www.w3.org/2000/svg" xmlns:xlink="http://www.w3.org/1999/xlink" x="0px"
	 y="0px" viewBox="0 0 300 300" style="enable-background:new 0 0 300 300;" xml:space="preserve">
<style type="text/css">
	.st0{fill:#00B06B;}
</style>
<path class="st0" d="M285.82,116.74c-11.91-1.65-17.47-7.14-19.8-18.98c-0.6-3.04-2.9-6.11-2.51-8.9
	c1.14-8.11-8.89-10.13-8.73-18.21c0.1-5.23-3.9-10.54-5.81-15.19c1.77-2.35,3.02-4.01,4.8-6.38c-4.04-4.05-7.65-7.66-9.61-9.62
	c0.89-9.13,5.18-14.5,8.4-20.43c2.14-3.95,6.24-7.98,1.16-13.76c-7.21,4.85-14.57,9.81-22.55,15.18c-2.91-1.95-5.33-3.9-8.05-5.28
	c-2.76-1.4-5.81-2.23-8.39-3.19c-6.19,6.24-11.71,11.79-16.89,17.01c-3.03,0-5.66,0-8.7,0c-0.15-2.6-0.27-4.75-0.38-6.69
	c2.62-6.72,14.08-8.98,8.95-19.39c-6.99,0-14.1,0-21.48,0c-2.63,4.13-5.18,8.14-8.79,13.8c-8.43-1.78-16-1.57-20.47,6.25
	c-7.35,0-14.01,0-19.89,0c-4.26,2.59-7.86,4.78-11.84,7.19c0,4.99,0,9.87,0,14.74c-0.5-0.12-0.99-0.24-1.49-0.36
	c-2.26,5.78-4.52,11.56-6.27,16.02c-5.03,4.31-9.32,7.98-13.91,11.91c2.1,2.81,3.35,4.49,3.81,5.11
	c-1.26,8.82-2.38,16.69-3.57,25.06c-3.33,1.22-7.11,3.33-11.12,3.94c-8.44,1.27-17,1.76-27.13,2.73
	C46.93,104,45.03,92.22,38.22,81.95c-8.95,6.51-21.8,6.84-28.68,19.55c3.99,6.72,7.94,13.39,11.93,20.1
	c-5.05,2.55-9.59,4.85-14.02,7.08c0.18,1.46,0.3,2.53,0.51,4.3c17.45,2.29,35.88-2.73,52.71,5.08c4.1,4.09,8.12,7.98,11.99,12.02
	c9.42,9.81,19.79,14.05,33.32,7.93c4.14-1.87,9.61-0.8,12.42-0.97c4.45,3.63,7.45,6.09,9.98,8.15c0,3.1,0.33,5.4-0.05,7.57
	c-2.5,14.37-6.5,27.61-21.46,34.54c-11.28,5.22-20.6,13.34-29.48,22.66c5.19,11.23-6.72,18.7-6.24,29.62
	c11.45,8.27,15.45,20.03,13.46,33.52c5.8,4.35,5.8,4.35,13.31,3.64c-0.52-18.55,13.84-26.25,26.37-35.76c6.29,0,12.95,0,18.61,0
	c3.64-4.87,6.82-9.14,9.51-12.73c5.87,0,10.75,0,13.44,0c10.15,6.47,18.55,11.83,27.78,17.71c3.49-5.76,6.42-10.6,9.06-14.96
	c-2.58-4.54-4.65-8.18-7.74-13.62c1.09-5.52,3.15-12.74,3.79-20.08c0.72-8.31,0.17-16.73,0.17-23.73
	c12.73-24.82,31.44-41.74,57.02-53.28c4.98,0,11.7-0.34,18.38,0.1c6.09,0.4,12.13,1.63,18.24,2.5c0-8.76,0-16.99,0-26.11
	C290.04,116.78,287.9,117.03,285.82,116.74z"/>
</svg>
